<?xml version="1.0" standalone="no"?>
<!DOCTYPE svg PUBLIC "-//W3C//DTD SVG 20010904//EN"
 "http://www.w3.org/TR/2001/REC-SVG-20010904/DTD/svg10.dtd">
<svg version="1.0" xmlns="http://www.w3.org/2000/svg"
 width="262.000000pt" height="172.000000pt" viewBox="0 0 262.000000 172.000000"
 preserveAspectRatio="xMidYMid meet">

<g transform="translate(0.000000,172.000000) scale(0.100000,-0.100000)"
fill="#000000" stroke="none">
<path d="M805 1599 c242 -26 456 -48 476 -48 36 -1 37 0 46 49 l10 50 -486 -1
-486 -1 440 -49z"/>
<path d="M1420 1641 c0 -5 -61 -354 -135 -775 -74 -421 -135 -770 -135 -776 0
-6 84 -10 233 -10 l234 0 21 123 c12 67 26 152 33 190 l11 67 177 0 c97 0 205
5 241 10 84 13 190 66 261 128 l55 50 75 -9 c125 -14 129 -13 129 21 l0 30
-88 0 -88 0 45 95 46 95 43 -5 c41 -5 42 -4 42 25 0 27 -3 30 -34 30 -34 0
-35 0 -25 33 5 17 14 60 20 95 7 41 16 62 25 62 15 0 20 46 5 52 -4 2 -11 47
-13 101 -4 80 -3 97 8 93 10 -4 14 3 14 19 0 18 -5 25 -20 25 -13 0 -25 14
-40 48 -12 26 -38 64 -58 85 -38 40 -119 87 -148 87 -10 0 -15 2 -12 5 5 5
157 -8 241 -21 33 -5 37 -3 37 15 l0 21 -600 0 c-355 0 -600 -4 -600 -9z m649
-415 c26 -24 27 -52 1 -191 -28 -155 -52 -174 -232 -175 -94 0 -89 -20 -48
215 17 93 30 171 30 173 0 2 51 2 114 0 95 -2 117 -6 135 -22z"/>
<path d="M480 1388 c330 -36 795 -86 796 -85 1 1 5 26 9 55 l7 52 -494 -1
-493 -1 175 -20z"/>
<path d="M265 1164 c11 -2 216 -24 455 -49 239 -25 451 -48 472 -51 40 -6 41
-5 54 69 l6 37 -503 -1 c-277 -1 -495 -3 -484 -5z"/>
<path d="M205 924 c20 -4 965 -104 978 -104 3 0 9 17 12 38 4 20 9 45 12 55 4
16 -25 17 -509 16 -282 -1 -504 -3 -493 -5z"/>
<path d="M150 684 c18 -4 959 -104 982 -104 11 0 20 15 27 50 6 28 11 53 11
55 0 3 -233 4 -517 4 -285 -1 -511 -3 -503 -5z"/>
<path d="M360 415 c499 -55 740 -79 744 -75 2 3 7 26 11 53 l7 47 -483 -1
-484 -1 205 -23z"/>
<path d="M2170 433 c19 -3 128 -14 243 -27 l207 -22 0 28 0 28 -242 -2 c-134
0 -227 -3 -208 -5z"/>
<path d="M105 193 c156 -21 951 -100 956 -95 4 4 10 28 13 55 l7 47 -503 -1
c-277 -1 -489 -4 -473 -6z"/>
<path d="M2375 179 c88 -9 179 -20 203 -23 40 -5 42 -4 42 19 l0 25 -202 -1
-203 -2 160 -18z"/>
</g>
</svg>
